<svg width="0" height="0" class="hidden">
  <symbol xmlns="http://www.w3.org/2000/svg" viewBox="0 0 512 512" id="challenge">
    <g clip-path="url(#clip0_551_49)">
      <path d="M192 104.8C192 95.6 186.2 87.5 178.8 82C167.2 73.3 160 61.3 160 48C160 21.5 188.7 0 224 0C259.3 0 288 21.5 288 48C288 61.3 280.8 73.3 269.2 82C261.8 87.5 256 95.6 256 104.8C256 117.6 266.4 128 279.2 128H336C362.5 128 384 149.5 384 176V232.8C384 245.6 394.4 256 407.2 256C416.4 256 424.5 250.2 430 242.8C438.7 231.2 450.7 224 464 224C490.5 224 512 252.7 512 288C512 323.3 490.5 352 464 352C450.7 352 438.7 344.8 430 333.2C424.5 325.8 416.4 320 407.2 320C394.4 320 384 330.4 384 343.2V464C384 490.5 362.5 512 336 512H279.2C266.4 512 256 501.6 256 488.8C256 479.6 261.8 471.5 269.2 466C280.8 457.3 288 445.3 288 432C288 405.5 259.3 384 224 384C188.7 384 160 405.5 160 432C160 445.3 167.2 457.3 178.8 466C186.2 471.5 192 479.6 192 488.8C192 501.6 181.6 512 168.8 512H48C21.5 512 0 490.5 0 464V343.2C0 330.4 10.4 320 23.2 320C32.4 320 40.5 325.8 46 333.2C54.7 344.8 66.7 352 80 352C106.5 352 128 323.3 128 288C128 252.7 106.5 224 80 224C66.7 224 54.7 231.2 46 242.8C40.5 250.2 32.4 256 23.2 256C10.4 256 0 245.6 0 232.8V176C0 149.5 21.5 128 48 128H168.8C181.6 128 192 117.6 192 104.8Z"></path>
    </g>
  </symbol>
  <symbol xmlns="http://www.w3.org/2000/svg" viewBox="0 0 512 512" id="chevron">
    <g clip-path="url(#clip0_551_41)">
      <path d="M256 0C188.105 0 122.99 26.9714 74.9807 74.9807C26.9714 122.99 0 188.105 0 256C0 323.895 26.9714 389.01 74.9807 437.019C122.99 485.029 188.105 512 256 512C323.895 512 389.01 485.029 437.019 437.019C485.029 389.01 512 323.895 512 256C512 188.105 485.029 122.99 437.019 74.9807C389.01 26.9714 323.895 0 256 0ZM135 241C125.6 231.6 125.6 216.4 135 207.1C144.4 197.8 159.6 197.7 168.9 207.1L255.9 294.1L342.9 207.1C352.3 197.7 367.5 197.7 376.8 207.1C386.1 216.5 386.2 231.7 376.8 241L273 345C263.6 354.4 248.4 354.4 239.1 345L135 241Z"></path>
    </g>
  </symbol>
  <symbol xmlns="http://www.w3.org/2000/svg" viewBox="0 0 512 512" id="conclusions">
    <g clip-path="url(#clip0_551_53)">
      <path d="M152.1 38.1999C162 47.0999 162.8 62.1999 153.9 72.0999L81.9 152.1C77.5 157 71.2999 159.9 64.7 160C58.1 160.1 51.7999 157.6 47.0999 153L6.99995 113C-2.30005 103.6 -2.30005 88.3999 6.99995 78.9999C16.3 69.5999 31.6 69.5999 40.9 78.9999L63 101.1L118.1 39.8999C127 29.9999 142.1 29.1999 152 38.0999L152.1 38.1999ZM152.1 198.2C162 207.1 162.8 222.2 153.9 232.1L81.9 312.1C77.5 317 71.2999 319.9 64.7 320C58.1 320.1 51.7999 317.6 47.0999 313L6.99995 273C-2.40005 263.6 -2.40005 248.4 6.99995 239.1C16.4 229.8 31.6 229.7 40.9 239.1L63 261.2L118.1 200C127 190.1 142.1 189.3 152 198.2H152.1ZM224 95.9999C224 78.2999 238.3 63.9999 256 63.9999H480C497.7 63.9999 512 78.2999 512 95.9999C512 113.7 497.7 128 480 128H256C238.3 128 224 113.7 224 95.9999ZM224 256C224 238.3 238.3 224 256 224H480C497.7 224 512 238.3 512 256C512 273.7 497.7 288 480 288H256C238.3 288 224 273.7 224 256ZM160 416C160 398.3 174.3 384 192 384H480C497.7 384 512 398.3 512 416C512 433.7 497.7 448 480 448H192C174.3 448 160 433.7 160 416ZM48 368C60.7303 368 72.9393 373.057 81.9411 382.059C90.9428 391.061 96 403.27 96 416C96 428.73 90.9428 440.939 81.9411 449.941C72.9393 458.943 60.7303 464 48 464C35.2696 464 23.0606 458.943 14.0588 449.941C5.05708 440.939 -4.91142e-05 428.73 -4.91142e-05 416C-4.91142e-05 403.27 5.05708 391.061 14.0588 382.059C23.0606 373.057 35.2696 368 48 368Z"></path>
    </g>
  </symbol>
  <symbol xmlns="http://www.w3.org/2000/svg" viewBox="0 0 512 512" id="design">
    <g clip-path="url(#clip0_551_47)">
      <path d="M469.3 19.3L492.7 42.7001C517.7 67.7001 517.7 108.2 492.7 133.2L436.3 189.6L322.3 75.7L378.7 19.3C403.7 -5.69995 444.2 -5.69995 469.2 19.3H469.3ZM44.9 353.2L299.7 98.3L413.7 212.3L158.8 467.1C152.1 473.8 143.7 478.7 134.6 481.3L30.6 511C22.2 513.4 13.2 511.1 6.99996 504.9C0.799959 498.7 -1.50004 489.7 0.899959 481.3L30.6 377.3C33.2 368.1 38.1 359.8 44.8 353.1L44.9 353.2ZM249.4 103.4L103.4 249.4L16 161.9C-2.70004 143.2 -2.70004 112.8 16 94L94.1 16C112.8 -2.69995 143.2 -2.69995 162 16L181.8 35.8C181.5 36.1 181.1 36.4001 180.8 36.7001L116.8 100.7C110.6 106.9 110.6 117.1 116.8 123.3C123 129.5 133.2 129.5 139.4 123.3L203.4 59.3C203.7 59 204 58.6 204.3 58.3L249.4 103.4ZM408.6 262.6L453.7 307.7C453.4 308 453 308.3 452.7 308.6L388.7 372.6C382.5 378.8 382.5 389 388.7 395.2C394.9 401.4 405.1 401.4 411.3 395.2L475.3 331.2C475.6 330.9 475.9 330.5 476.2 330.2L496 350.1C514.7 368.8 514.7 399.2 496 418L417.9 496C399.2 514.7 368.8 514.7 350 496L262.6 408.6L408.6 262.6Z"></path>
    </g>
  </symbol>
  <symbol xmlns="http://www.w3.org/2000/svg" viewBox="0 0 512 512" id="email">
    <path d="M48 64C21.5 64 0 85.5 0 112C0 127.1 7.1 141.3 19.2 150.4L236.8 313.6C248.2 322.1 263.8 322.1 275.2 313.6L492.8 150.4C504.9 141.3 512 127.1 512 112C512 85.5 490.5 64 464 64H48ZM0 176V384C0 419.3 28.7 448 64 448H448C483.3 448 512 419.3 512 384V176L294.4 339.2C271.6 356.3 240.4 356.3 217.6 339.2L0 176Z"></path>
  </symbol>
  <symbol xmlns="http://www.w3.org/2000/svg" viewBox="0 0 384 512" id="figma">
    <path d="M14 95.8C14 42.9 56.9 0 109.8 0H274.2C327.1 0 370 42.9 370 95.8C370 129.3 352.8 158.8 326.7 175.9C352.8 193 370 222.5 370 256C370 308.9 327.1 351.8 274.2 351.8H272.1C247.3 351.8 224.7 342.4 207.7 326.9V415.2C207.7 468.8 163.7 512 110.3 512C57.5 512 14 469.2 14 416.2C14 382.7 31.2 353.2 57.2 336.1C31.2 319 14 289.5 14 256C14 222.5 31.2 193 57.2 175.9C31.2 158.8 14 129.3 14 95.8ZM176.3 191.6H109.8C74.2 191.6 45.4 220.4 45.4 256C45.4 291.4 74 320.2 109.4 320.4C109.5 320.4 109.7 320.4 109.8 320.4H176.3V191.6ZM207.7 256C207.7 291.6 236.5 320.4 272.1 320.4H274.2C309.7 320.4 338.6 291.6 338.6 256C338.6 220.4 309.7 191.6 274.2 191.6H272.1C236.5 191.6 207.7 220.4 207.7 256ZM109.8 351.8C109.7 351.8 109.5 351.8 109.4 351.8C74 352 45.4 380.8 45.4 416.2C45.4 451.7 74.6 480.6 110.3 480.6C146.6 480.6 176.3 451.2 176.3 415.2V351.8H109.8ZM109.8 31.4C74.2 31.4 45.4 60.2 45.4 95.8C45.4 131.4 74.2 160.2 109.8 160.2H176.3V31.4H109.8ZM207.7 160.2H274.2C309.7 160.2 338.6 131.4 338.6 95.8C338.6 60.2 309.7 31.4 274.2 31.4H207.7V160.2Z"></path>
  </symbol>
  <symbol xmlns="http://www.w3.org/2000/svg" viewBox="0 0 384 512" id="file">
    <g clip-path="url(#clip0_554_2)">
      <path d="M0 64C0 28.7 28.7 0 64 0H224V128C224 145.7 238.3 160 256 160H384V448C384 483.3 355.3 512 320 512H64C28.7 512 0 483.3 0 448V64ZM384 128H256V0L384 128Z"></path>
    </g>
  </symbol>
  <symbol xmlns="http://www.w3.org/2000/svg" viewBox="0 0 496 512" id="github">
    <path d="M165.9 397.4C165.9 399.4 163.6 401 160.7 401C157.4 401.3 155.1 399.7 155.1 397.4C155.1 395.4 157.4 393.8 160.3 393.8C163.3 393.5 165.9 395.1 165.9 397.4ZM134.8 392.9C134.1 394.9 136.1 397.2 139.1 397.8C141.7 398.8 144.7 397.8 145.3 395.8C145.9 393.8 144 391.5 141 390.6C138.4 389.9 135.5 390.9 134.8 392.9ZM179 391.2C176.1 391.9 174.1 393.8 174.4 396.1C174.7 398.1 177.3 399.4 180.3 398.7C183.2 398 185.2 396.1 184.9 394.1C184.6 392.2 181.9 390.9 179 391.2ZM244.8 8C106.1 8 0 113.3 0 252C0 362.9 69.8 457.8 169.5 491.2C182.3 493.5 186.8 485.6 186.8 479.1C186.8 472.9 186.5 438.7 186.5 417.7C186.5 417.7 116.5 432.7 101.8 387.9C101.8 387.9 90.4 358.8 74 351.3C74 351.3 51.1 335.6 75.6 335.9C75.6 335.9 100.5 337.9 114.2 361.7C136.1 400.3 172.8 389.2 187.1 382.6C189.4 366.6 195.9 355.5 203.1 348.9C147.2 342.7 90.8 334.6 90.8 238.4C90.8 210.9 98.4 197.1 114.4 179.5C111.8 173 103.3 146.2 117 111.6C137.9 105.1 186 138.6 186 138.6C206 133 227.5 130.1 248.8 130.1C270.1 130.1 291.6 133 311.6 138.6C311.6 138.6 359.7 105 380.6 111.6C394.3 146.3 385.8 173 383.2 179.5C399.2 197.2 409 211 409 238.4C409 334.9 350.1 342.6 294.2 348.9C303.4 356.8 311.2 371.8 311.2 395.3C311.2 429 310.9 470.7 310.9 478.9C310.9 485.4 315.5 493.3 328.2 491C428.2 457.8 496 362.9 496 252C496 113.3 383.5 8 244.8 8ZM97.2 352.9C95.9 353.9 96.2 356.2 97.9 358.1C99.5 359.7 101.8 360.4 103.1 359.1C104.4 358.1 104.1 355.8 102.4 353.9C100.8 352.3 98.5 351.6 97.2 352.9ZM86.4 344.8C85.7 346.1 86.7 347.7 88.7 348.7C90.3 349.7 92.3 349.4 93 348C93.7 346.7 92.7 345.1 90.7 344.1C88.7 343.5 87.1 343.8 86.4 344.8ZM118.8 380.4C117.2 381.7 117.8 384.7 120.1 386.6C122.4 388.9 125.3 389.2 126.6 387.6C127.9 386.3 127.3 383.3 125.3 381.4C123.1 379.1 120.1 378.8 118.8 380.4ZM107.4 365.7C105.8 366.7 105.8 369.3 107.4 371.6C109 373.9 111.7 374.9 113 373.9C114.6 372.6 114.6 370 113 367.7C111.6 365.4 109 364.4 107.4 365.7Z"></path>
  </symbol>
  <symbol xmlns="http://www.w3.org/2000/svg" viewBox="0 0 512 512" id="globe">
    <g clip-path="url(#clip0_552_55)">
      <path d="M352 256C352 278.2 350.8 299.6 348.7 320H163.3C161.1 299.6 160 278.2 160 256C160 233.8 161.2 212.4 163.3 192H348.7C350.9 212.4 352 233.8 352 256ZM380.8 192H503.9C509.2 212.5 512 233.9 512 256C512 278.1 509.2 299.5 503.9 320H380.8C382.9 299.4 384 278 384 256C384 234 382.9 212.6 380.8 192ZM493.4 160H376.7C366.7 96.1 346.9 42.6 321.4 8.4C399.7 29.1 463.4 85.9 493.3 160H493.4ZM344.3 160H167.7C173.8 123.6 183.2 91.4 194.7 65.3C205.2 41.7 216.9 24.6 228.2 13.8C239.4 3.2 248.7 0 256 0C263.3 0 272.6 3.2 283.8 13.8C295.1 24.6 306.8 41.7 317.3 65.3C328.9 91.3 338.2 123.5 344.3 160ZM135.3 160H18.6C48.6 85.9 112.2 29.1 190.6 8.4C165.1 42.6 145.3 96.1 135.3 160ZM8.1 192H131.2C129.1 212.6 128 234 128 256C128 278 129.1 299.4 131.2 320H8.1C2.8 299.5 0 278.1 0 256C0 233.9 2.8 212.5 8.1 192ZM194.7 446.6C183.1 420.6 173.8 388.4 167.7 352H344.3C338.2 388.4 328.8 420.6 317.3 446.6C306.8 470.2 295.1 487.3 283.8 498.1C272.6 508.8 263.3 512 256 512C248.7 512 239.4 508.8 228.2 498.2C216.9 487.4 205.2 470.3 194.7 446.7V446.6ZM135.3 352C145.3 415.9 165.1 469.4 190.6 503.6C112.2 482.9 48.6 426.1 18.6 352H135.3ZM493.4 352C463.4 426.1 399.8 482.9 321.5 503.6C347 469.4 366.7 415.9 376.8 352H493.4Z"></path>
    </g>
  </symbol>
  <symbol xmlns="http://www.w3.org/2000/svg" viewBox="0 0 576 512" id="home">
    <g clip-path="url(#clip0_551_37)">
      <path d="M575.8 255.5C575.8 273.5 560.8 287.6 543.8 287.6H511.8L512.5 447.8C512.5 450.5 512.3 453.2 512 455.9V472C512 494.1 494.1 512 472 512H456C454.9 512 453.8 512 452.7 511.9C451.3 512 449.9 512 448.5 512H416H392C369.9 512 352 494.1 352 472V448V384C352 366.3 337.7 352 320 352H256C238.3 352 224 366.3 224 384V448V472C224 494.1 206.1 512 184 512H160H128.1C126.6 512 125.1 511.9 123.6 511.8C122.4 511.9 121.2 512 120 512H104C81.9 512 64 494.1 64 472V360C64 359.1 64 358.1 64.1 357.2V287.6H32C14 287.6 0 273.6 0 255.5C0 246.5 3 238.5 10 231.5L266.4 8C273.4 1 281.4 0 288.4 0C295.4 0 303.4 2 309.4 7L564.8 231.5C572.8 238.5 576.8 246.5 575.8 255.5Z"></path>
    </g>
  </symbol>
  <symbol xmlns="http://www.w3.org/2000/svg" viewBox="0 0 448 512" id="linkedin">
    <path d="M100.3 448H7.4V148.9H100.3V448ZM53.8 108.1C24.1 108.1 0 83.5 0 53.8C0 39.5314 5.6682 25.8471 15.7577 15.7577C25.8471 5.6682 39.5314 0 53.8 0C68.0686 0 81.7529 5.6682 91.8423 15.7577C101.932 25.8471 107.6 39.5314 107.6 53.8C107.6 83.5 83.5 108.1 53.8 108.1ZM447.9 448H355.2V302.4C355.2 267.7 354.5 223.2 306.9 223.2C258.6 223.2 251.2 260.9 251.2 299.9V448H158.4V148.9H247.5V189.7H248.8C261.2 166.2 291.5 141.4 336.7 141.4C430.7 141.4 448 203.3 448 283.7V448H447.9Z"></path>
  </symbol>
  <symbol xmlns="http://www.w3.org/2000/svg" viewBox="0 0 512 512" id="research">
    <g clip-path="url(#clip0_551_51)">
      <path d="M160 96C160 70.5392 170.114 46.1212 188.118 28.1177C206.121 10.1143 230.539 0 256 0C281.461 0 305.879 10.1143 323.882 28.1177C341.886 46.1212 352 70.5392 352 96C352 121.461 341.886 145.879 323.882 163.882C305.879 181.886 281.461 192 256 192C230.539 192 206.121 181.886 188.118 163.882C170.114 145.879 160 121.461 160 96ZM240 248V512L191.6 487.8C170.7 477.4 148.1 470.8 124.8 468.5L28.8 458.9C12.5 457.2 0 443.5 0 427V224C0 206.3 14.3 192 32 192H62.3C125.9 192 187.9 211.6 240 248ZM272 512V248C324.1 211.6 386.1 192 449.7 192H480C497.7 192 512 206.3 512 224V427C512 443.4 499.5 457.2 483.2 458.8L387.2 468.4C364 470.7 341.3 477.3 320.4 487.7L272 512Z"></path>
    </g>
  </symbol>
  <symbol xmlns="http://www.w3.org/2000/svg" viewBox="0 0 512 512" id="scope">
    <g clip-path="url(#clip0_551_43)">
      <path d="M256 0C273.7 0 288 14.3 288 32V42.4C381.7 56.3 455.7 130.4 469.6 224H480C497.7 224 512 238.3 512 256C512 273.7 497.7 288 480 288H469.6C455.7 381.7 381.6 455.7 288 469.6V480C288 497.7 273.7 512 256 512C238.3 512 224 497.7 224 480V469.6C130.3 455.7 56.3 381.7 42.4 288H32C14.3 288 0 273.7 0 256C0 238.3 14.3 224 32 224H42.4C56.3 130.3 130.3 56.3 224 42.4V32C224 14.3 238.3 0 256 0ZM107.4 288C119.9 346.3 165.8 392.1 224 404.6V384C224 366.3 238.3 352 256 352C273.7 352 288 366.3 288 384V404.6C346.3 392.1 392.1 346.2 404.6 288H384C366.3 288 352 273.7 352 256C352 238.3 366.3 224 384 224H404.6C392.1 165.7 346.3 119.9 288 107.4V128C288 145.7 273.7 160 256 160C238.3 160 224 145.7 224 128V107.4C165.7 119.9 119.9 165.7 107.4 224H128C145.7 224 160 238.3 160 256C160 273.7 145.7 288 128 288H107.4ZM256 224C264.487 224 272.626 227.371 278.627 233.373C284.629 239.374 288 247.513 288 256C288 264.487 284.629 272.626 278.627 278.627C272.626 284.629 264.487 288 256 288C247.513 288 239.374 284.629 233.373 278.627C227.371 272.626 224 264.487 224 256C224 247.513 227.371 239.374 233.373 233.373C239.374 227.371 247.513 224 256 224Z"></path>
    </g>
  </symbol>
  <symbol xmlns="http://www.w3.org/2000/svg" viewBox="0 0 512 512" id="x-twitter">
    <path d="M389.2 48H459.8L305.6 224.2L487 464H345L233.7 318.6L106.5 464H35.8L200.7 275.5L26.8 48H172.4L272.9 180.9L389.2 48ZM364.4 421.8H403.5L151.1 88H109.1L364.4 421.8Z"></path>
  </symbol>
  <symbol xmlns="http://www.w3.org/2000/svg" viewBox="0 0 512 512" id="about">
    <g clip-path="url(#clip0_551_39)">
      <path d="M256 512C323.895 512 389.01 485.029 437.019 437.019C485.029 389.01 512 323.895 512 256C512 188.105 485.029 122.99 437.019 74.9807C389.01 26.9714 323.895 0 256 0C188.105 0 122.99 26.9714 74.9807 74.9807C26.9714 122.99 0 188.105 0 256C0 323.895 26.9714 389.01 74.9807 437.019C122.99 485.029 188.105 512 256 512ZM216 336H240V272H216C202.7 272 192 261.3 192 248C192 234.7 202.7 224 216 224H264C277.3 224 288 234.7 288 248V336H296C309.3 336 320 346.7 320 360C320 373.3 309.3 384 296 384H216C202.7 384 192 373.3 192 360C192 346.7 202.7 336 216 336ZM256 128C264.487 128 272.626 131.371 278.627 137.373C284.629 143.374 288 151.513 288 160C288 168.487 284.629 176.626 278.627 182.627C272.626 188.629 264.487 192 256 192C247.513 192 239.374 188.629 233.373 182.627C227.371 176.626 224 168.487 224 160C224 151.513 227.371 143.374 233.373 137.373C239.374 131.371 247.513 128 256 128Z"></path>
    </g>
  </symbol>
</svg>