<svg width="0" height="0" class="hidden">
  <symbol xmlns="http://www.w3.org/2000/svg" viewBox="0 0 10 10" id="challenge">
    <g clip-path="url(#clip0_544_41)">
      <path d="M5.00007 10.0016C4.80194 10.0016 4.61538 9.92469 4.47507 9.785L0.212256 5.5225C-0.0761816 5.23281 -0.0761816 4.76125 0.211631 4.47219L1.77319 2.91094C1.86944 2.81437 2.01757 2.79156 2.13882 2.855C2.25944 2.91812 2.32569 3.0525 2.30194 3.18687C2.28601 3.27625 2.27882 3.34781 2.27882 3.41281C2.27882 4.09656 2.83507 4.66437 3.51913 4.66437C4.20382 4.66437 4.70351 4.09656 4.70351 3.41281C4.70351 2.72812 4.20382 2.17187 3.51913 2.17187C3.45507 2.17187 3.38382 2.17938 3.29444 2.195C3.15882 2.22 3.02569 2.15281 2.96257 2.03219C2.89944 1.91094 2.92226 1.76281 3.01851 1.66656L4.47444 0.210312C4.75632 -0.0703125 5.24413 -0.0696875 5.52476 0.209688L6.59069 1.27625C6.81319 0.584688 7.46257 0.0825 8.22663 0.0825C9.17413 0.0825 9.94507 0.85375 9.94507 1.80156C9.94507 2.56594 9.44351 3.215 8.75132 3.43719L9.78694 4.47219C10.076 4.76219 10.076 5.23344 9.78726 5.52312L5.52507 9.78562C5.38413 9.92625 5.19788 10.0031 4.99976 10.0031L5.00007 10.0016ZM1.70788 3.85969L0.654131 4.91313C0.608818 4.95875 0.608818 5.03469 0.654756 5.08094L4.91601 9.3425C4.97569 9.40156 5.02288 9.4025 5.08382 9.34187L9.34507 5.08031C9.39069 5.03406 9.39069 4.95937 9.34476 4.91281L7.84194 3.41094C7.74788 3.31687 7.72351 3.17344 7.78132 3.05375C7.83913 2.93406 7.96538 2.86313 8.09882 2.87969L8.14632 2.88594C8.17257 2.88937 8.19882 2.89375 8.22632 2.89375C8.82944 2.89375 9.31976 2.40344 9.31976 1.80094C9.31976 1.1975 8.82913 0.706875 8.22632 0.706875C7.62351 0.706875 7.13319 1.19781 7.13319 1.80094C7.13319 1.82594 7.13694 1.85031 7.14038 1.87469L7.14694 1.93031C7.16101 2.06219 7.09069 2.18844 6.97101 2.24562C6.85226 2.30219 6.70913 2.27812 6.61569 2.18437L5.08319 0.650937C5.02319 0.591562 4.97632 0.590938 4.91538 0.651563L3.96694 1.6C4.78038 1.80125 5.32819 2.53719 5.32819 3.41188C5.32819 4.44031 4.54757 5.28813 3.51882 5.28813C2.64444 5.28813 1.90882 4.67219 1.70788 3.85969Z"></path>
    </g>
  </symbol>
  <symbol xmlns="http://www.w3.org/2000/svg" viewBox="0 0 10 10" id="chevron">
    <g clip-path="url(#clip0_541_17)">
      <path d="M5 0C2.24291 0 0 2.24291 0 5C0 7.75709 2.24291 10 5 10C7.75709 10 10 7.75709 10 5C10 2.24291 7.75709 0 5 0ZM7.37791 4.46125L5.29459 6.54459C5.21334 6.62584 5.10668 6.66668 5 6.66668C4.89332 6.66668 4.78666 6.62584 4.70541 6.54459L2.62209 4.46125C2.45918 4.29834 2.45918 4.035 2.62209 3.87209C2.785 3.70918 3.04834 3.70918 3.21125 3.87209L5 5.66084L6.78875 3.87209C6.95166 3.70918 7.215 3.70918 7.37791 3.87209C7.54084 4.035 7.54084 4.29834 7.37791 4.46125Z"></path>
    </g>
  </symbol>
  <symbol xmlns="http://www.w3.org/2000/svg" viewBox="0 0 10 10" id="conclusions">
    <g clip-path="url(#clip0_544_60)">
      <path d="M8.69404 8.39325C8.69404 8.866 8.38619 9.26828 7.96029 9.40998V6.1663H7.47807C6.84319 6.1663 6.32674 5.64985 6.32674 5.01498C6.32674 4.38008 6.84319 3.8636 7.47807 3.8636H7.96029V0.590025C8.38612 0.731725 8.69404 1.13398 8.69404 1.60675V3.86365H9.22959V1.60675C9.22959 0.719425 8.51032 0 7.62284 0H2.37677C1.48937 0 0.77002 0.7194 0.77002 1.60675V8.39325C0.77002 9.28055 1.48934 10 2.37677 10H7.62284C8.51024 10 9.22959 9.2806 9.22959 8.39325V6.1663H8.69404V8.39325Z"></path>
      <path d="M9.14894 4.28516H7.59009C7.33451 4.28516 7.10951 4.41773 6.97974 4.61761C7.18056 4.63831 7.33716 4.80796 7.33716 5.01421C7.33716 5.21978 7.18159 5.38886 6.98179 5.41051C7.11181 5.60866 7.33584 5.73986 7.59009 5.73986H9.14894C9.19356 5.73986 9.22974 5.70368 9.22974 5.65906V4.36601C9.22974 4.32136 9.19356 4.28516 9.14894 4.28516Z"></path>
    </g>
  </symbol>
  <symbol xmlns="http://www.w3.org/2000/svg" viewBox="0 0 10 11" id="design">
    <g clip-path="url(#clip0_544_50)">
      <path d="M8.56436 9.52307L8.56441 9.52303C8.76218 9.32528 8.76218 9.00347 8.56441 8.80569C8.46864 8.70993 8.3412 8.6571 8.2057 8.6571C8.07026 8.6571 7.94284 8.70993 7.84701 8.80579C7.6493 9.00348 7.6493 9.32529 7.84706 9.52303C8.04486 9.72076 8.36663 9.72076 8.56436 9.52307ZM8.0048 9.36528C7.95116 9.31164 7.92161 9.24029 7.92161 9.16436C7.92161 9.08848 7.95115 9.01708 8.0048 8.96343C8.0585 8.90979 8.12987 8.88022 8.20577 8.88022C8.28166 8.88022 8.35298 8.90979 8.40667 8.96343C8.51744 9.07424 8.51744 9.25447 8.40662 9.36528C8.29584 9.47609 8.11561 9.47604 8.0048 9.36528Z" ></path>
      <path d="M9.44953 3.20404C9.44965 3.20389 9.44979 3.2038 9.44991 3.20368C9.45015 3.20344 9.45037 3.20317 9.45062 3.20293L9.48119 3.17235L9.48043 3.17158C9.93507 2.68372 9.92508 1.91705 9.44983 1.44182C9.21454 1.2065 8.9017 1.0769 8.56892 1.0769C8.25098 1.0769 7.95139 1.19545 7.72007 1.41124L7.71933 1.41049L7.68871 1.44109C7.68847 1.44134 7.68821 1.44156 7.68797 1.44182C7.68785 1.44193 7.68775 1.44207 7.68763 1.4422L0.368627 8.76117L0.371477 8.76402C0.330566 8.7904 0.300927 8.83373 0.29381 8.88573L0.0531101 10.6439C0.0457824 10.6974 0.0639435 10.7513 0.102171 10.7896C0.13481 10.8222 0.178877 10.8402 0.224416 10.8402C0.232205 10.8402 0.240043 10.8397 0.247882 10.8386L2.00594 10.5978C2.05797 10.5907 2.10129 10.5611 2.12768 10.5202L2.13052 10.523L9.44953 3.20404ZM8.56892 1.42269C8.80932 1.42269 9.03533 1.51632 9.20531 1.68632C9.51444 1.99542 9.55129 2.47532 9.31585 2.82511L8.06642 1.57573C8.21369 1.47619 8.38722 1.42269 8.56892 1.42269ZM7.71933 1.8995L8.99218 3.17234L2.13052 10.034L1.65166 9.55517L7.15957 4.04734L6.82984 3.71766L1.322 9.22554L0.857643 8.76117L7.71933 1.8995ZM0.426588 10.4651L0.62481 9.01732L1.87434 10.2669L0.426588 10.4651Z"></path>
      <path d="M2.81616 5.43599L3.13166 5.12049L0.606955 2.59577L1.63713 1.56556L2.1256 2.05407L1.7712 2.40842L2.05099 2.6882L2.40539 2.33387L2.69018 2.61864L2.33578 2.97301L2.61557 3.25276L2.97 2.89843L3.25476 3.18325L2.73046 3.70743L3.01032 3.98723L3.53456 3.46299L3.88179 3.8102L3.52739 4.16465L3.80718 4.4444L4.16158 4.09L4.16182 4.09026L4.47732 3.77476L1.79486 1.09234C1.70773 1.00519 1.56651 1.00519 1.47939 1.09234L0.133722 2.43802C0.0465719 2.52515 0.0465719 2.66639 0.133722 2.75351L2.81616 5.43599Z"></path>
      <path d="M9.88286 9.17937C9.87883 9.17532 9.87465 9.17146 9.87041 9.16779L7.06329 6.36072L6.22352 7.20049L6.50273 7.47971L7.02702 6.95543L9.40918 9.33756L8.37896 10.3677L5.71759 7.7064L5.4021 8.02194L8.22119 10.841C8.30832 10.9281 8.44954 10.9281 8.53668 10.841L9.88243 9.49535C9.88254 9.49516 9.88269 9.49506 9.88287 9.49487C9.97001 9.40779 9.97001 9.2665 9.88286 9.17937Z"></path>
    </g>
  </symbol>
  <symbol xmlns="http://www.w3.org/2000/svg" viewBox="0 0 10 11" id="research">
    <g clip-path="url(#clip0_544_30)">
      <path d="M8.21204 7.98278L8.50123 7.69359L8.27317 7.46553L7.98397 7.75472L7.67962 7.45036C7.92413 7.0102 8.06462 6.50472 8.06462 5.96665C8.06462 5.92069 8.05978 5.87601 8.05768 5.83053C8.81559 5.6523 9.35494 4.98133 9.35494 4.19246H9.03236C9.03236 4.81536 8.61655 5.34811 8.02623 5.50682C7.80317 4.03488 6.53317 2.90214 5.0001 2.90214C4.95413 2.90214 4.90946 2.90698 4.86397 2.90907C4.68575 2.15117 4.01478 1.61182 3.22591 1.61182V1.9344C3.84881 1.9344 4.38155 2.3502 4.54026 2.94053C3.06833 3.16359 1.93559 4.43359 1.93559 5.96665C1.93559 6.01262 1.94042 6.0573 1.94252 6.10278C1.18462 6.28101 0.645264 6.95198 0.645264 7.74085H0.967844C0.967844 7.11795 1.38365 6.5852 1.97397 6.42649C2.19704 7.89843 3.46704 9.03117 5.0001 9.03117C5.53817 9.03117 6.04365 8.89069 6.48365 8.64617L6.78801 8.95053L6.49881 9.23972L6.72688 9.46778L7.01607 9.17859L8.55655 10.7191C8.71623 10.8788 8.92865 10.9667 9.15446 10.9667C9.62075 10.9667 10.0001 10.5873 10.0001 10.1212C10.0001 9.89536 9.9122 9.68294 9.75252 9.52327L8.21204 7.98278ZM5.0001 3.22472C6.37591 3.22472 7.51478 4.24407 7.70946 5.56666L7.39155 5.61956C7.22252 4.44972 6.21607 3.5473 5.0001 3.5473C4.99188 3.5473 4.98381 3.54843 4.97559 3.54859L4.92236 3.22875C4.94849 3.22795 4.97381 3.22472 5.0001 3.22472ZM5.0001 3.86988C6.15623 3.86988 7.09688 4.81053 7.09688 5.96665C7.09688 7.12278 6.15623 8.06343 5.0001 8.06343C3.84397 8.06343 2.90333 7.12278 2.90333 5.96665C2.90333 4.81053 3.84397 3.86988 5.0001 3.86988ZM2.25817 5.96665C2.25817 4.59085 3.27752 3.45198 4.6001 3.2573L4.65301 3.5752C3.48317 3.74424 2.58075 4.75069 2.58075 5.96665C2.58075 5.97488 2.58188 5.98295 2.58204 5.99117L2.2622 6.0444C2.26139 6.01827 2.25817 5.99295 2.25817 5.96665ZM5.0001 8.70859C3.6243 8.70859 2.48542 7.68924 2.29075 6.36665L2.60865 6.31375C2.77768 7.48359 3.78413 8.38601 5.0001 8.38601C6.33413 8.38601 7.41946 7.30069 7.41946 5.96665C7.41946 5.95843 7.41833 5.95036 7.41817 5.94214L7.73801 5.88891C7.73881 5.91504 7.74204 5.94036 7.74204 5.96665C7.74204 7.47859 6.51204 8.70859 5.0001 8.70859ZM6.76301 8.46924C7.04978 8.26665 7.3001 8.01633 7.50268 7.72956L7.75591 7.98278L7.01623 8.72246L6.76301 8.46924ZM9.15462 10.6441C9.01494 10.6441 8.88349 10.5897 8.78478 10.491L7.2443 8.95053L7.98397 8.21085L9.52446 9.75133C9.62317 9.85004 9.67752 9.98149 9.67752 10.1212C9.67752 10.4096 9.44301 10.6441 9.15462 10.6441Z"></path>
      <path d="M8.54829 3.8699C9.34878 3.8699 9.99991 3.21877 9.99991 2.41829C9.99991 1.6178 9.34878 0.966675 8.54829 0.966675C7.74781 0.966675 7.09668 1.6178 7.09668 2.41829C7.09668 3.21877 7.74781 3.8699 8.54829 3.8699ZM9.03216 3.43684C8.88523 3.50684 8.72152 3.54732 8.54829 3.54732C8.37507 3.54732 8.21136 3.50684 8.06442 3.43684V3.22474C8.06442 2.95797 8.28152 2.74087 8.54829 2.74087C8.81507 2.74087 9.03216 2.95797 9.03216 3.22474V3.43684ZM8.22571 2.09571C8.22571 1.9178 8.37039 1.77313 8.54829 1.77313C8.7262 1.77313 8.87087 1.9178 8.87087 2.09571C8.87087 2.27361 8.7262 2.41829 8.54829 2.41829C8.37039 2.41829 8.22571 2.27361 8.22571 2.09571ZM8.54829 1.28926C9.17071 1.28926 9.67732 1.79587 9.67732 2.41829C9.67732 2.72587 9.55329 3.00474 9.35313 3.20861C9.34765 2.93748 9.2091 2.69829 8.99894 2.55619C9.11861 2.43909 9.19345 2.27619 9.19345 2.09571C9.19345 1.7399 8.9041 1.45055 8.54829 1.45055C8.19249 1.45055 7.90313 1.7399 7.90313 2.09571C7.90313 2.27619 7.97797 2.43909 8.09765 2.55619C7.88733 2.69845 7.74878 2.93748 7.74345 3.20861C7.54329 3.00474 7.41926 2.72587 7.41926 2.41829C7.41926 1.79587 7.92587 1.28926 8.54829 1.28926Z"></path>
      <path d="M1.45161 3.8699C2.2521 3.8699 2.90323 3.21877 2.90323 2.41829C2.90323 1.6178 2.2521 0.966675 1.45161 0.966675C0.651129 0.966675 0 1.6178 0 2.41829C0 3.21877 0.651129 3.8699 1.45161 3.8699ZM1.93548 3.43684C1.78855 3.50684 1.62484 3.54732 1.45161 3.54732C1.27839 3.54732 1.11468 3.50684 0.967742 3.43684V3.22474C0.967742 2.95797 1.18484 2.74087 1.45161 2.74087C1.71839 2.74087 1.93548 2.95797 1.93548 3.22474V3.43684ZM1.12903 2.09571C1.12903 1.9178 1.27371 1.77313 1.45161 1.77313C1.62952 1.77313 1.77419 1.9178 1.77419 2.09571C1.77419 2.27361 1.62952 2.41829 1.45161 2.41829C1.27371 2.41829 1.12903 2.27361 1.12903 2.09571ZM1.45161 1.28926C2.07403 1.28926 2.58065 1.79587 2.58065 2.41829C2.58065 2.72587 2.45661 3.00474 2.25645 3.20861C2.25097 2.93748 2.11242 2.69829 1.90226 2.55619C2.02194 2.43909 2.09677 2.27619 2.09677 2.09571C2.09677 1.7399 1.80742 1.45055 1.45161 1.45055C1.09581 1.45055 0.806452 1.7399 0.806452 2.09571C0.806452 2.27619 0.88129 2.43909 1.00097 2.55619C0.790806 2.69845 0.652258 2.93748 0.646774 3.20861C0.446613 3.00474 0.322581 2.72587 0.322581 2.41829C0.322581 1.79587 0.829194 1.28926 1.45161 1.28926Z"></path>
      <path d="M1.45161 8.06348C0.651129 8.06348 0 8.71461 0 9.51509C0 10.3156 0.651129 10.9667 1.45161 10.9667C2.2521 10.9667 2.90323 10.3156 2.90323 9.51509C2.90323 8.71461 2.2521 8.06348 1.45161 8.06348ZM1.93548 10.5336C1.78855 10.6036 1.62484 10.6441 1.45161 10.6441C1.27839 10.6441 1.11468 10.6036 0.967742 10.5336V10.3215C0.967742 10.0548 1.18484 9.83767 1.45161 9.83767C1.71839 9.83767 1.93548 10.0548 1.93548 10.3215V10.5336ZM1.12903 9.19251C1.12903 9.01461 1.27371 8.86993 1.45161 8.86993C1.62952 8.86993 1.77419 9.01461 1.77419 9.19251C1.77419 9.37041 1.62952 9.51509 1.45161 9.51509C1.27371 9.51509 1.12903 9.37041 1.12903 9.19251ZM2.25645 10.3054C2.25097 10.0343 2.11242 9.79509 1.90226 9.65299C2.02194 9.5359 2.09677 9.37299 2.09677 9.19251C2.09677 8.8367 1.80742 8.54735 1.45161 8.54735C1.09581 8.54735 0.806452 8.8367 0.806452 9.19251C0.806452 9.37299 0.88129 9.5359 1.00097 9.65299C0.790806 9.79525 0.652258 10.0343 0.646774 10.3054C0.446613 10.1015 0.322581 9.82267 0.322581 9.51509C0.322581 8.89267 0.829194 8.38606 1.45161 8.38606C2.07403 8.38606 2.58065 8.89267 2.58065 9.51509C2.58065 9.82267 2.45661 10.1015 2.25645 10.3054Z"></path>
      <path d="M3.22583 5.64408V6.45053V6.61182V6.77311H6.77422V6.61182V6.45053V4.99892H5.80647V6.45053H5.48389V4.35376H4.51615V6.45053H4.19357V5.64408H3.22583ZM6.12906 5.3215H6.45164V6.45053H6.12906V5.3215ZM4.83873 4.67634H5.16131V6.45053H4.83873V4.67634ZM3.87099 6.45053H3.54841V5.96666H3.87099V6.45053Z"></path>
    </g>
  </symbol>
  <symbol xmlns="http://www.w3.org/2000/svg" viewBox="0 0 11 10" id="scope">
    <g clip-path="url(#clip0_544_39)">
      <path d="M0.599529 5.29605H1.43423C1.57815 7.20395 3.10776 8.73766 5.01155 8.88159V9.70395C5.01155 9.86843 5.13901 10 5.30348 10C5.47206 10 5.59953 9.86843 5.59953 9.70395V8.88159C7.50331 8.73766 9.03296 7.20395 9.1768 5.29605H10.0116C10.176 5.29605 10.3076 5.16446 10.3076 5C10.3076 4.83554 10.176 4.70805 10.0116 4.70805H9.1768C9.03296 2.80016 7.50331 1.26645 5.59953 1.12254V0.296054C5.59953 0.131571 5.47206 0 5.30348 0C5.13901 0 5.01155 0.131571 5.01155 0.296051V1.12254C3.10776 1.26645 1.57815 2.80016 1.43423 4.70805H0.599529C0.435064 4.70805 0.325439 4.83554 0.325439 5C0.325439 5.16446 0.435064 5.29605 0.599529 5.29605ZM5.30348 3.37582C5.47206 3.37582 5.59953 3.24425 5.59953 3.07977V1.79277C7.14558 1.93257 8.34623 3.14555 8.48198 4.70805H7.22783C7.06335 4.70805 6.93176 4.83554 6.93176 5C6.93176 5.16446 7.06335 5.29605 7.22783 5.29605H8.48198C8.34623 6.85445 7.14558 8.06743 5.59953 8.20723V6.92023C5.59953 6.75575 5.47206 6.6283 5.30348 6.6283C5.13901 6.6283 5.01155 6.75575 5.01155 6.92023V8.20723C3.46548 8.06743 2.26483 6.85445 2.12914 5.29605H3.38326C3.54773 5.29605 3.6793 5.16446 3.6793 5C3.6793 4.83554 3.54773 4.70805 3.38326 4.70805H2.12914C2.26483 3.14555 3.46548 1.93257 5.01155 1.79277V3.07977C5.01155 3.24425 5.13901 3.37582 5.30348 3.37582Z"></path>
    </g>
  </symbol>
</svg>